<?xml version="1.0" encoding="utf-8"?><!DOCTYPE svg PUBLIC "-//W3C//DTD SVG 1.1//EN" "http://www.w3.org/Graphics/SVG/1.1/DTD/svg11.dtd"><svg width="51" height="34" viewBox="0 0 51 34" xmlns="http://www.w3.org/2000/svg" xmlns:xlink="http://www.w3.org/1999/xlink"><svg width="17" height="17" viewBox="-3.33 -3.33 56.67 56.67" id="brands"><path d="M4.48 39.104v-.4c.03-.142.068-.28.085-.425l.357-3.22.605-5.447c.2-1.79.396-3.577.594-5.367l.69-6.24c.074-.658.156-1.313.232-1.967h35.893c.025.12.055.224.067.328.222 2.002.444 4.004.664 6.005.25 2.267.494 4.534.745 6.8.288 2.6.575 5.196.87 7.793.064.58.156 1.16.236 1.738v.4c-2.176.316-4.352.635-6.527.947-3.35.48-6.7.96-10.052 1.437-.455.064-.912.12-1.386.182l-2.507-12.534-.098.008-2.507 12.532c-.715-.102-1.386-.195-2.056-.29-2.69-.388-5.38-.774-8.07-1.16-2.61-.375-5.22-.748-7.833-1.122z"/><path fill-rule="evenodd" clip-rule="evenodd" d="M42.95 13.44H7.05c0-.545-.008-1.086.002-1.627.01-.493-.03-.998.068-1.475.253-1.235 1.255-2.01 2.533-2.01 8.466-.003 16.93 0 25.395 0 1.763 0 3.524 0 5.287-.004 1.494-.002 2.615 1.105 2.62 2.59v2.525z"/></svg><svg width="17" height="15.09" viewBox="-38.13 -38.13 648.27 575.27" id="home" x="17"><title>discover</title><g transform="translate(1 1)" fill="none" fill-rule="evenodd"><path d="M491.972 100.395a1247.91 1247.91 0 0 0-99.906-11.904l69.47-69.44c1.986-1.983 3.31-5.29 3.31-7.935 0-2.645-1.324-5.952-3.31-7.936-4.63-4.63-11.246-4.63-15.878 0l-82.703 82.666L352.37 62.7H217.396L206.81 85.845 124.108 3.18c-1.985-1.985-5.293-3.307-7.94-3.307-2.646 0-5.954 1.322-7.94 3.306-4.63 4.63-4.63 11.242 0 15.87L177.7 88.49c-33.082 2.647-66.825 6.615-99.907 11.905C34.126 107.67-.28 145.365-.28 180.417V400.64c0 35.05 34.406 72.747 78.073 80.022 136.957 21.824 277.884 21.824 414.84 0 43.668-7.275 78.073-44.97 78.073-80.02V180.416c0-35.05-35.066-72.747-78.734-80.022z" fill="#000"/><g transform="translate(81.763 197.61)" fill="#FFF"><path d="M-1.985 95.893c0-27.114 9.263-49.6 27.788-68.117C44.33 9.26 66.823 0 93.95 0c12.572 0 23.82 2.645 35.73 7.275 11.247 4.63 21.833 11.242 30.434 20.5 9.263 9.26 16.54 19.18 21.172 31.084 4.63 11.903 7.278 23.807 7.278 36.372 0 13.227-1.985 25.13-6.616 37.035-4.632 11.904-11.248 21.824-19.85 31.082-9.262 9.258-19.186 16.533-31.096 21.823-11.91 5.29-23.818 7.275-37.05 7.275-13.895 0-26.466-2.645-37.714-7.275-11.91-4.63-21.833-11.904-31.096-21.824-8.6-9.26-15.218-19.18-19.187-31.083-5.293-11.243-7.94-23.147-7.94-36.374zM93.95 37.696c-16.54 0-29.772 5.29-41.02 16.533C41.683 65.47 36.39 79.36 36.39 95.23c0 15.872 5.954 29.76 17.202 41.664 11.248 11.904 25.142 17.856 40.36 17.856 15.878 0 29.772-5.952 40.358-17.195 11.248-11.242 16.54-25.792 16.54-42.986 0-15.87-5.292-29.098-16.54-40.34-11.91-10.582-25.14-16.534-40.36-16.534zM218.337 95.893c0-27.114 9.263-49.6 27.79-68.117C264.65 9.26 287.146 0 314.272 0c12.57 0 23.82 2.645 35.728 7.275 11.25 4.63 21.835 11.242 30.436 20.5 9.263 9.26 16.54 19.18 21.172 31.084 4.632 11.903 7.278 23.807 7.278 36.372 0 13.227-1.985 25.13-6.616 37.035-4.632 11.904-11.248 21.824-19.85 31.082-9.262 9.258-19.186 16.533-31.096 21.823-11.91 5.29-23.818 7.275-37.05 7.275-13.895 0-26.466-2.645-37.714-7.275-11.247-4.63-21.833-11.904-31.096-21.824-8.6-9.26-15.217-19.18-19.187-31.083-5.955-11.243-7.94-23.147-7.94-36.374zm95.275-58.197c-16.54 0-29.774 5.29-41.02 16.533C261.34 65.47 256.05 79.36 256.05 95.23c0 15.872 5.955 29.76 17.202 41.664 11.248 11.904 25.142 17.856 40.36 17.856 15.88 0 29.773-5.952 40.36-17.195 11.247-11.242 16.54-25.792 16.54-42.986 0-15.87-5.293-29.098-16.54-40.34-11.25-10.582-24.48-16.534-40.36-16.534z"/></g></g></svg><svg width="15.8" height="17" viewBox="-33.33 -33.33 526.67 566.67" id="latest" y="17"><title>following</title><g transform="translate(1)" fill="#000" fill-rule="evenodd"><path d="M331.167 250c0-57.53-46.637-104.167-104.167-104.167S122.833 192.47 122.833 250 169.47 354.167 227 354.167 331.167 307.53 331.167 250zM164.5 250c0-34.518 27.982-62.5 62.5-62.5s62.5 27.982 62.5 62.5-27.982 62.5-62.5 62.5-62.5-27.982-62.5-62.5zM289.5 62.5C289.5 27.982 261.518 0 227 0s-62.5 27.982-62.5 62.5S192.482 125 227 125s62.5-27.982 62.5-62.5zm-83.333 0c0-11.506 9.327-20.833 20.833-20.833 11.506 0 20.833 9.327 20.833 20.833 0 11.506-9.327 20.833-20.833 20.833-11.506 0-20.833-9.327-20.833-20.833zM289.5 437.5c0-34.518-27.982-62.5-62.5-62.5s-62.5 27.982-62.5 62.5S192.482 500 227 500s62.5-27.982 62.5-62.5zm-83.333 0c0-11.506 9.327-20.833 20.833-20.833 11.506 0 20.833 9.327 20.833 20.833 0 11.506-9.327 20.833-20.833 20.833-11.506 0-20.833-9.327-20.833-20.833zM426.96 202.003c29.893-17.26 40.135-55.483 22.877-85.376-17.26-29.894-55.484-40.136-85.377-22.877-29.893 17.26-40.136 55.483-22.877 85.377 17.26 29.893 55.484 40.135 85.377 22.876zm-41.667-72.17c9.965-5.752 22.706-2.338 28.46 7.627 5.752 9.964 2.338 22.706-7.626 28.46-9.965 5.752-22.706 2.338-28.46-7.627-5.752-9.964-2.338-22.706 7.626-28.46zM93.627 410.337c29.893-17.26 40.135-55.484 22.876-85.377-17.26-29.893-55.483-40.136-85.376-22.877C1.233 319.343-9.01 357.567 8.25 387.46c17.26 29.893 55.483 40.135 85.377 22.877zm-41.667-72.17c9.964-5.752 22.706-2.338 28.46 7.626 5.752 9.965 2.338 22.706-7.627 28.46-9.964 5.752-22.706 2.338-28.46-7.626-5.752-9.965-2.338-22.706 7.627-28.46zM364.46 410.337c29.893 17.258 68.118 7.016 85.377-22.877 17.258-29.893 7.016-68.118-22.877-85.377-29.893-17.26-68.118-7.016-85.377 22.877-17.26 29.893-7.016 68.118 22.877 85.377zm41.667-72.17c9.964 5.754 13.378 18.495 7.625 28.46-5.753 9.964-18.494 13.378-28.46 7.625-9.963-5.753-13.377-18.494-7.624-28.46 5.753-9.963 18.494-13.377 28.46-7.624zM31.127 202.003c29.893 17.26 68.117 7.017 85.376-22.876 17.26-29.894 7.017-68.118-22.876-85.377C63.733 76.49 25.51 86.733 8.25 116.627c-17.26 29.893-7.017 68.117 22.877 85.376zm41.666-72.17c9.965 5.754 13.38 18.496 7.626 28.46-5.754 9.965-18.496 13.38-28.46 7.626-9.965-5.754-13.38-18.496-7.626-28.46 5.753-9.965 18.495-13.38 28.46-7.626z"/></g></svg><svg width="17" height="17" viewBox="-6 -6 102 102" id="music" x="15.8" y="17"><title>noun_79685_cc</title><path d="M75.325.01h1.904c1.097 0 .977-.087.977 1.01V2.7c0 .704.577 1.282 1.283 1.282h5.238c.705 0 1.283-.577 1.283-1.283V.765c0-.804-.104-.754.706-.754h2.542c.83 0 .73-.055.73.77v86.895c0 2.697.097 2.3-2.586 2.3H76.667c-2.374 0-2.332.384-2.332-2.007 0-.157-.014-.308-.046-.45v-1.53a3.918 3.918 0 0 0-3.908-3.907h-50.79a3.918 3.918 0 0 0-3.906 3.907v3.555c-.044.476-.28.432-1.336.432h-1.283c-1.46 0-1.26.07-1.26-1.384v-1.286c0-.706-.578-1.283-1.284-1.283H5.285c-.705 0-1.283.577-1.283 1.283v.883c0 1.554.4 1.787-1.193 1.787H1.452c-1.824 0-1.416-.147-1.41-1.937C.167 59.555.035 30.483.033 2.028.033-.256-.11.01 2.183.01h2.87c.072.013.14.02.214.02h5.238c.073 0 .147-.006.218-.02h3.11c1.507 0 1.804-.096 1.853.654v3.25a3.918 3.918 0 0 0 3.907 3.907h50.79a3.918 3.918 0 0 0 3.908-3.907v-2.47c.032-.188.047-.388.047-.607 0-.997 0-.825.988-.825zM50.85 54.643c-.054-6.857.04-13.663.027-20.556a39.743 39.743 0 0 0 3.538 2.127 99.21 99.21 0 0 0 1.78.924c1.574.795 3.11 1.478 4.778 2.274.353.17.712.333 1.034.39.58.106.58-.614.592-1.348 0-2.56.025-4.792 0-7.354-.006-.656-.03-.914-.548-1.27l-4.53-2.59a37.462 37.462 0 0 1-4.698-3.18L48.3 20.51c-.816-.55-1.342-.25-1.338.796l.025 7.787-.05 24.21c-2.074-1.546-4.816-2.49-7.82-2.49-6.473 0-11.723 4.37-11.723 9.757 0 5.39 5.25 9.758 11.724 9.758 4.35 0 8.296-1.876 10.17-4.9 1.925-3.106 1.583-7.94 1.56-10.786zM19.687 11.768a4.013 4.013 0 0 0-4.002 4.003v58.44a4.017 4.017 0 0 0 4.002 4.003h50.646a4.02 4.02 0 0 0 4.003-4.003V15.77c0-2.197-1.8-4.003-4.003-4.003H19.688zm59.82 46.93c-.704 0-1.282.578-1.282 1.284v5.238c0 .706.577 1.283 1.283 1.283h5.237c.705 0 1.283-.577 1.283-1.283v-5.238c0-.706-.577-1.283-1.283-1.283H79.51zm.047 15.618c-.706 0-1.283.577-1.283 1.283v5.237c0 .706.577 1.283 1.283 1.283h5.238c.706 0 1.283-.577 1.283-1.283V75.6c0-.707-.577-1.284-1.283-1.284h-5.238zm-.064-46.86c-.704 0-1.282.578-1.282 1.284v5.238c0 .706.577 1.283 1.283 1.283h5.24c.704 0 1.282-.576 1.282-1.282V28.74c0-.706-.577-1.283-1.283-1.283h-5.24zm.046 15.618c-.706 0-1.283.577-1.283 1.283v5.238c0 .706.577 1.283 1.283 1.283h5.238c.705 0 1.283-.577 1.283-1.283v-5.238c0-.706-.577-1.283-1.283-1.283h-5.238zm0-31.28c-.706 0-1.283.578-1.283 1.284v5.238c0 .705.577 1.283 1.283 1.283h5.238c.705 0 1.283-.578 1.283-1.284v-5.238c0-.706-.577-1.283-1.283-1.283h-5.238zM5.286 54.747C4.58 54.746 4 55.323 4 56.03v5.237c0 .706.577 1.283 1.283 1.283h5.238c.706 0 1.283-.577 1.283-1.283V56.03c0-.707-.577-1.284-1.283-1.284H5.285zm.044 15.617c-.705 0-1.283.577-1.283 1.283v5.238c0 .706.577 1.283 1.283 1.283h5.238c.705 0 1.283-.577 1.283-1.283v-5.238c0-.706-.576-1.283-1.282-1.283H5.33zm-.064-46.86c-.706 0-1.283.578-1.283 1.284v5.238c0 .706.577 1.283 1.283 1.283h5.238c.706 0 1.283-.577 1.283-1.283v-5.238c0-.706-.577-1.283-1.283-1.283H5.266zm.045 15.618c-.704 0-1.282.578-1.282 1.284v5.238c0 .706.577 1.283 1.283 1.283h5.24c.705 0 1.282-.577 1.282-1.283v-5.238c0-.706-.577-1.283-1.283-1.283H5.31zm0-31.277c-.704 0-1.282.577-1.282 1.283v5.238c0 .705.577 1.283 1.283 1.283h5.24c.705 0 1.282-.577 1.282-1.283V9.126c0-.706-.577-1.283-1.283-1.283H5.31z" fill="#000" fill-rule="evenodd"/></svg><svg width="17" height="15.33" viewBox="-37.67 -37.67 640.33 577.33" id="people" x="34"><title>people</title><g transform="translate(1 -4)" fill="#000" fill-rule="evenodd"><path d="M281.2 396.11l-125.146 95.276c-36.676 27.922-55.835 14.72-42.792-29.493l43.99-149.116-131.776-81.215c-39.237-24.182-33.68-43.785 12.417-43.785h164.43l51.71-150.24c15.004-43.59 39.328-43.59 54.33 0l51.71 150.24h164.432c46.094 0 51.658 19.6 12.417 43.785l-131.777 81.215 43.99 149.116c13.044 44.21-6.116 57.414-42.79 29.493L281.198 396.11zm.3-41.943c40.307 0 72.98-32.646 72.98-72.917 0-40.27-32.673-72.917-72.98-72.917s-72.98 32.646-72.98 72.917c0 40.27 32.673 72.917 72.98 72.917z"/><ellipse cx="281.5" cy="281.25" rx="31.278" ry="31.25"/></g></svg><svg width="17" height="14.48" viewBox="-40.07 -40.07 681.13 580.13" id="shows" x="34" y="15.33"><title>shows</title><g transform="translate(1)" fill="#000" fill-rule="evenodd"><circle cx="483.191" cy="112.5" r="37.5"/><path d="M-.426 49.95v325.1c0 27.586 22.38 49.95 49.996 49.95h500.01c27.61 0 49.994-22.363 49.994-49.95V49.95c0-27.586-22.38-49.95-49.995-49.95H49.57C21.958 0-.426 22.363-.426 49.95zm550.005.01l-.006 325.09c0-.007-500.004-.01-500.004-.01l.004-325.09c0 .007 500.005.01 500.005.01z"/><path d="M249.574 461.298V400h125v55.944c67.42 13.252 150 44.056 150 44.056h-400s63.54-23.954 125-38.702z"/></g></svg></svg>